<svg width="202" height="96" viewBox="0 0 202 96" fill="none" xmlns="http://www.w3.org/2000/svg">
<g filter="url(#filter0_d_70_552)">
<rect x="15" y="14" width="167.222" height="61.4286" rx="8.53175" fill="white"/>
<rect x="79.8413" y="53.2461" width="80.1984" height="5.0124" rx="2.5062" fill="#DFDFDF"/>
<rect x="80" y="53" width="63" height="5" rx="2.5" fill="#7913E5"/>
<path d="M80.7499 44.9167V35.9584H82.1065V44.9167H80.7499ZM83.8732 44.9167V38.5691H85.0761L85.1785 39.6825C85.3747 39.2901 85.6606 38.9829 86.036 38.7611C86.4199 38.5307 86.8593 38.4156 87.3541 38.4156C88.122 38.4156 88.7235 38.6544 89.1586 39.1322C89.6022 39.61 89.8241 40.3224 89.8241 41.2694V44.9167H88.4803V41.4102C88.4803 40.1816 87.9769 39.5673 86.9702 39.5673C86.4668 39.5673 86.0488 39.7465 85.716 40.1048C85.3918 40.4632 85.2297 40.9751 85.2297 41.6406V44.9167H83.8732ZM93.1006 44.9167L90.7203 38.5691H92.1408L93.9069 43.6242L95.673 38.5691H97.0807L94.7131 44.9167H93.1006ZM100.84 45.0703C100.217 45.0703 99.6622 44.9338 99.1759 44.6608C98.6981 44.3792 98.3227 43.9911 98.0497 43.4962C97.7767 43.0014 97.6402 42.4255 97.6402 41.7685C97.6402 41.1031 97.7724 40.5186 98.0369 40.0153C98.3099 39.5119 98.6853 39.1194 99.1631 38.8379C99.6494 38.5563 100.213 38.4156 100.852 38.4156C101.475 38.4156 102.017 38.5563 102.478 38.8379C102.938 39.1109 103.297 39.4778 103.553 39.9385C103.809 40.3992 103.937 40.9068 103.937 41.4614C103.937 41.5467 103.932 41.6406 103.924 41.7429C103.924 41.8368 103.92 41.9434 103.911 42.0629H98.9711C99.0138 42.6772 99.2143 43.1464 99.5726 43.4706C99.9395 43.7863 100.362 43.9441 100.84 43.9441C101.224 43.9441 101.543 43.8588 101.799 43.6882C102.064 43.509 102.26 43.2701 102.388 42.9715H103.745C103.574 43.5687 103.233 44.0678 102.721 44.4688C102.217 44.8698 101.59 45.0703 100.84 45.0703ZM100.84 39.529C100.387 39.529 99.9864 39.6655 99.6366 39.9385C99.2868 40.203 99.0735 40.604 98.9967 41.1415H102.58C102.554 40.6466 102.38 40.2541 102.055 39.9641C101.731 39.674 101.326 39.529 100.84 39.529ZM107.878 45.0703C107.076 45.0703 106.415 44.8741 105.894 44.4816C105.374 44.0892 105.075 43.5687 104.999 42.9203H106.368C106.436 43.2104 106.598 43.4621 106.854 43.6754C107.11 43.8801 107.447 43.9825 107.865 43.9825C108.275 43.9825 108.573 43.8972 108.761 43.7266C108.949 43.5559 109.043 43.3597 109.043 43.1379C109.043 42.8137 108.91 42.5961 108.646 42.4852C108.39 42.3658 108.032 42.2591 107.571 42.1653C107.213 42.0885 106.854 41.9861 106.496 41.8581C106.146 41.7301 105.852 41.551 105.613 41.3206C105.383 41.0817 105.267 40.7618 105.267 40.3608C105.267 39.8062 105.481 39.3455 105.907 38.9787C106.334 38.6033 106.931 38.4156 107.699 38.4156C108.407 38.4156 108.979 38.5862 109.414 38.9275C109.857 39.2687 110.118 39.7508 110.194 40.3736H108.889C108.846 40.1006 108.718 39.8873 108.505 39.7337C108.3 39.5801 108.023 39.5034 107.673 39.5034C107.332 39.5034 107.068 39.5759 106.88 39.7209C106.692 39.8574 106.598 40.0366 106.598 40.2584C106.598 40.4802 106.726 40.6551 106.982 40.7831C107.247 40.9111 107.592 41.0263 108.019 41.1287C108.445 41.2225 108.838 41.3334 109.196 41.4614C109.563 41.5808 109.857 41.76 110.079 41.9989C110.301 42.2378 110.412 42.5876 110.412 43.0483C110.421 43.6285 110.194 44.1105 109.734 44.4944C109.282 44.8784 108.663 45.0703 107.878 45.0703ZM114.317 44.9167C113.695 44.9167 113.2 44.7674 112.833 44.4688C112.466 44.1617 112.283 43.6199 112.283 42.8435V39.7081H111.195V38.5691H112.283L112.449 36.9566H113.639V38.5691H115.431V39.7081H113.639V42.8435C113.639 43.1933 113.712 43.4365 113.857 43.573C114.01 43.701 114.27 43.765 114.637 43.765H115.367V44.9167H114.317ZM117.597 37.3662C117.341 37.3662 117.128 37.2894 116.958 37.1358C116.795 36.9737 116.714 36.7732 116.714 36.5343C116.714 36.2954 116.795 36.0992 116.958 35.9456C117.128 35.7835 117.341 35.7025 117.597 35.7025C117.853 35.7025 118.062 35.7835 118.224 35.9456C118.395 36.0992 118.48 36.2954 118.48 36.5343C118.48 36.7732 118.395 36.9737 118.224 37.1358C118.062 37.2894 117.853 37.3662 117.597 37.3662ZM116.919 44.9167V38.5691H118.276V44.9167H116.919ZM120.386 44.9167V39.7081H119.478V38.5691H120.386V37.6477C120.386 36.9566 120.557 36.4618 120.898 36.1632C121.248 35.856 121.739 35.7025 122.37 35.7025H123.035V36.8542H122.575C122.276 36.8542 122.063 36.9182 121.935 37.0462C121.807 37.1657 121.743 37.3704 121.743 37.6605V38.5691H123.202V39.7081H121.743V44.9167H120.386ZM125.233 47.7322L126.756 44.392H126.385L123.876 38.5691H125.348L127.293 43.2659L129.328 38.5691H130.761L126.666 47.7322H125.233Z" fill="#0C1825"/>
<rect x="29.5039" y="28.5039" width="34.9802" height="33.2738" rx="8.53175" fill="#DFDFDF"/>
<circle cx="47.4207" cy="44.7144" r="7.67857" stroke="#7913E5" stroke-width="1.70635"/>
<circle cx="47.4207" cy="44.7145" r="5.54563" stroke="#7913E5" stroke-width="1.70635"/>
<circle cx="47.4207" cy="44.7144" r="3.4127" stroke="#7913E5" stroke-width="1.70635"/>
</g>
<defs>
<filter id="filter0_d_70_552" x="0.496032" y="0.349207" width="201.349" height="95.5555" filterUnits="userSpaceOnUse" color-interpolation-filters="sRGB">
<feFlood flood-opacity="0" result="BackgroundImageFix"/>
<feColorMatrix in="SourceAlpha" type="matrix" values="0 0 0 0 0 0 0 0 0 0 0 0 0 0 0 0 0 0 127 0" result="hardAlpha"/>
<feOffset dx="2.55952" dy="3.4127"/>
<feGaussianBlur stdDeviation="8.53175"/>
<feComposite in2="hardAlpha" operator="out"/>
<feColorMatrix type="matrix" values="0 0 0 0 0.491319 0 0 0 0 0.342014 0 0 0 0 0.342014 0 0 0 0.1 0"/>
<feBlend mode="normal" in2="BackgroundImageFix" result="effect1_dropShadow_70_552"/>
<feBlend mode="normal" in="SourceGraphic" in2="effect1_dropShadow_70_552" result="shape"/>
</filter>
</defs>
</svg>
