<svg width="170" height="81" viewBox="0 0 170 81" fill="none" xmlns="http://www.w3.org/2000/svg">
<g filter="url(#filter0_d_70_496)">
<rect x="13" y="12" width="140" height="51.4286" rx="7.14286" fill="white"/>
<rect x="67.2858" y="44.8572" width="67.1429" height="4.19643" rx="2.09821" fill="#DFDFDF"/>
<rect x="67.2858" y="44.8572" width="32.872" height="4.19643" rx="2.09821" fill="#10B259"/>
<path d="M68.0465 38V30.5H69.3858L71.9251 35.4929L74.4536 30.5H75.7929V38H74.6572V32.4607L72.3643 36.9286H71.4858L69.1822 32.4714V38H68.0465ZM77.8954 40.3571L79.1704 37.5607H78.8597L76.7597 32.6857H77.9918L79.6204 36.6179L81.324 32.6857H82.524L79.0954 40.3571H77.8954ZM86.2001 38V30.5H88.7822C89.3751 30.5 89.8608 30.6 90.2394 30.8C90.6251 31 90.9108 31.2714 91.0965 31.6143C91.2822 31.95 91.3751 32.325 91.3751 32.7393C91.3751 33.2036 91.2501 33.625 91.0001 34.0036C90.7572 34.3821 90.3751 34.6536 89.8537 34.8179L91.4501 38H90.1322L88.6751 34.9786H87.3358V38H86.2001ZM87.3358 34.1214H88.7179C89.2322 34.1214 89.6072 33.9964 89.8429 33.7464C90.0858 33.4964 90.2072 33.1714 90.2072 32.7714C90.2072 32.3714 90.0894 32.0536 89.8537 31.8179C89.6179 31.575 89.2358 31.4536 88.7072 31.4536H87.3358V34.1214ZM94.8371 38.1286C94.3157 38.1286 93.8514 38.0143 93.4443 37.7857C93.0443 37.55 92.73 37.225 92.5014 36.8107C92.2728 36.3964 92.1586 35.9143 92.1586 35.3643C92.1586 34.8071 92.2693 34.3179 92.4907 33.8964C92.7193 33.475 93.0336 33.1464 93.4336 32.9107C93.8407 32.675 94.3121 32.5571 94.8478 32.5571C95.3693 32.5571 95.8229 32.675 96.2086 32.9107C96.5943 33.1393 96.8943 33.4464 97.1086 33.8321C97.3228 34.2179 97.43 34.6429 97.43 35.1071C97.43 35.1786 97.4264 35.2571 97.4193 35.3429C97.4193 35.4214 97.4157 35.5107 97.4086 35.6107H93.2728C93.3086 36.125 93.4764 36.5179 93.7764 36.7893C94.0836 37.0536 94.4371 37.1857 94.8371 37.1857C95.1586 37.1857 95.4264 37.1143 95.6407 36.9714C95.8621 36.8214 96.0264 36.6214 96.1336 36.3714H97.2693C97.1264 36.8714 96.8407 37.2893 96.4121 37.625C95.9907 37.9607 95.4657 38.1286 94.8371 38.1286ZM94.8371 33.4893C94.4586 33.4893 94.1228 33.6036 93.83 33.8321C93.5371 34.0536 93.3586 34.3893 93.2943 34.8393H96.2943C96.2728 34.425 96.1264 34.0964 95.855 33.8536C95.5836 33.6107 95.2443 33.4893 94.8371 33.4893ZM98.6084 38V32.6857H99.6155L99.7013 33.6179C99.8655 33.2893 100.105 33.0321 100.419 32.8464C100.741 32.6536 101.108 32.5571 101.523 32.5571C102.166 32.5571 102.669 32.7571 103.033 33.1571C103.405 33.5571 103.591 34.1536 103.591 34.9464V38H102.466V35.0643C102.466 34.0357 102.044 33.5214 101.201 33.5214C100.78 33.5214 100.43 33.6714 100.151 33.9714C99.8798 34.2714 99.7441 34.7 99.7441 35.2571V38H98.6084ZM107.157 38C106.635 38 106.221 37.875 105.914 37.625C105.607 37.3679 105.453 36.9143 105.453 36.2643V33.6393H104.542V32.6857H105.453L105.592 31.3357H106.589V32.6857H108.089V33.6393H106.589V36.2643C106.589 36.5571 106.65 36.7607 106.771 36.875C106.9 36.9821 107.117 37.0357 107.425 37.0357H108.035V38H107.157Z" fill="#0C1825"/>
<rect x="25.1428" y="24.1428" width="29.2857" height="27.8571" rx="7.14286" fill="#DFDFDF"/>
<circle cx="40.1429" cy="37.7143" r="6.42857" stroke="#10B259" stroke-width="1.42857"/>
<circle cx="40.1429" cy="37.7143" r="4.64286" stroke="#10B259" stroke-width="1.42857"/>
<circle cx="40.1428" cy="37.7143" r="2.85714" stroke="#10B259" stroke-width="1.42857"/>
</g>
<defs>
<filter id="filter0_d_70_496" x="0.857142" y="0.571428" width="168.571" height="79.9999" filterUnits="userSpaceOnUse" color-interpolation-filters="sRGB">
<feFlood flood-opacity="0" result="BackgroundImageFix"/>
<feColorMatrix in="SourceAlpha" type="matrix" values="0 0 0 0 0 0 0 0 0 0 0 0 0 0 0 0 0 0 127 0" result="hardAlpha"/>
<feOffset dx="2.14286" dy="2.85714"/>
<feGaussianBlur stdDeviation="7.14286"/>
<feComposite in2="hardAlpha" operator="out"/>
<feColorMatrix type="matrix" values="0 0 0 0 0.491319 0 0 0 0 0.342014 0 0 0 0 0.342014 0 0 0 0.1 0"/>
<feBlend mode="normal" in2="BackgroundImageFix" result="effect1_dropShadow_70_496"/>
<feBlend mode="normal" in="SourceGraphic" in2="effect1_dropShadow_70_496" result="shape"/>
</filter>
</defs>
</svg>
