<svg width="109" height="128" viewBox="0 0 109 128" fill="none" xmlns="http://www.w3.org/2000/svg">
<path d="M107.17 24.5712C106.686 24.0185 106.093 23.5716 105.428 23.2586C104.764 22.9455 104.042 22.773 103.307 22.7518C91.8988 22.4535 77.4627 10.2544 67.9182 5.46723C62.0225 2.51936 58.1301 0.575661 55.2071 0.0636373C54.6136 -0.0228472 54.0105 -0.0211721 53.4175 0.0686084C50.4945 0.580632 46.6021 2.52433 40.7113 5.4722C31.1668 10.2544 16.7308 22.4535 5.32208 22.7518C4.5872 22.7741 3.86474 22.9471 3.19946 23.26C2.53419 23.573 1.94028 24.0193 1.45456 24.5712C0.447781 25.7102 -0.071667 27.199 0.00797343 28.7171C2.45873 78.5425 20.3298 109.378 51.6875 127.299C52.5028 127.761 53.4075 128 54.3073 128C55.2071 128 56.1118 127.761 56.932 127.299C88.2897 109.378 106.156 78.5425 108.612 28.7171C108.696 27.1992 108.178 25.7094 107.17 24.5712ZM82.2349 44.1673L55.7738 83.2153C54.8243 84.6172 53.333 85.5468 51.8565 85.5468C50.3752 85.5468 48.7297 84.7365 47.6908 83.6975L29.0392 65.041C28.4303 64.4297 28.0883 63.6021 28.0883 62.7393C28.0883 61.8766 28.4303 61.0489 29.0392 60.4377L33.6474 55.8196C34.2599 55.213 35.087 54.8728 35.949 54.8728C36.811 54.8728 37.6382 55.213 38.2506 55.8196L50.3801 67.9491L71.4526 36.8448C71.9402 36.1331 72.6896 35.6431 73.5371 35.482C74.3847 35.3209 75.2616 35.5016 75.9763 35.9848L81.37 39.6436C82.0826 40.1304 82.5735 40.8794 82.7356 41.727C82.8977 42.5746 82.7177 43.452 82.2349 44.1673Z" fill="#287AF2"/>
<path d="M85.7502 39.1681C85.4477 38.8226 85.0772 38.5434 84.6618 38.3477C84.2464 38.152 83.7951 38.0442 83.3361 38.0309C76.2057 37.8445 67.1832 30.2201 61.2178 27.2281C57.533 25.3857 55.1003 24.1709 53.2734 23.8509C52.9024 23.7968 52.5255 23.7979 52.1549 23.854C50.328 24.174 47.8953 25.3888 44.2136 27.2312C38.2482 30.2201 29.2257 37.8445 22.0953 38.0309C21.636 38.0449 21.1844 38.153 20.7686 38.3486C20.3528 38.5442 19.9816 38.8231 19.6781 39.1681C19.0488 39.88 18.7242 40.8104 18.7739 41.7593C20.3057 72.9001 31.4751 92.1725 51.0737 103.373C51.5832 103.662 52.1487 103.811 52.711 103.811C53.2734 103.811 53.8389 103.662 54.3515 103.373C73.9501 92.1725 85.1164 72.9001 86.6512 41.7593C86.7039 40.8106 86.3801 39.8794 85.7502 39.1681ZM70.1658 51.4157L53.6276 75.8207C53.0342 76.6968 52.1021 77.2778 51.1793 77.2778C50.2534 77.2778 49.225 76.7714 48.5757 76.122L36.9185 64.4617C36.5379 64.0797 36.3242 63.5624 36.3242 63.0232C36.3242 62.4839 36.5379 61.9667 36.9185 61.5847L39.7986 58.6983C40.1814 58.3192 40.6984 58.1066 41.2371 58.1066C41.7759 58.1066 42.2928 58.3192 42.6756 58.6983L50.2566 66.2793L63.4269 46.8391C63.7316 46.3943 64.2 46.0881 64.7297 45.9873C65.2594 45.8866 65.8075 45.9996 66.2542 46.3016L69.6252 48.5883C70.0706 48.8926 70.3774 49.3607 70.4787 49.8905C70.58 50.4202 70.4675 50.9686 70.1658 51.4157Z" fill="#1F5FBC"/>
</svg>
