<svg width="15" height="12" viewBox="0 0 15 12" fill="none" xmlns="http://www.w3.org/2000/svg">
<path d="M0.333344 5.77149C0.333344 5.45508 0.568472 5.19358 0.873535 5.1522L0.958344 5.14649L11.945 5.14699L7.97585 1.19405C7.73125 0.950499 7.7304 0.554772 7.97395 0.310169C8.19536 0.0878029 8.54254 0.0668831 8.7876 0.247901L8.85783 0.308266L13.8995 5.32827C13.9317 5.36037 13.9597 5.39511 13.9835 5.43181C13.9902 5.44285 13.9971 5.45415 14.0035 5.46568C14.0095 5.47556 14.0149 5.48581 14.02 5.49619C14.027 5.51128 14.0339 5.52687 14.0402 5.54278C14.0453 5.55504 14.0495 5.56697 14.0534 5.579C14.058 5.59391 14.0625 5.6098 14.0663 5.62593C14.0692 5.6372 14.0714 5.64804 14.0734 5.65892C14.0762 5.67511 14.0786 5.69187 14.0802 5.70883C14.0817 5.72176 14.0826 5.73457 14.0831 5.7474C14.0832 5.75517 14.0833 5.76331 14.0833 5.77149L14.083 5.7957C14.0826 5.80797 14.0817 5.82023 14.0805 5.83245L14.0833 5.77149C14.0833 5.81093 14.0797 5.84952 14.0727 5.88693C14.0711 5.89587 14.0692 5.90504 14.067 5.91418C14.0626 5.93299 14.0574 5.95111 14.0515 5.96887C14.0486 5.9777 14.0453 5.98713 14.0416 5.99649C14.0343 6.01529 14.0264 6.03322 14.0177 6.05068C14.0136 6.05889 14.0091 6.06749 14.0043 6.076C13.9965 6.08988 13.9885 6.10307 13.9799 6.11593C13.9739 6.12503 13.9673 6.1345 13.9604 6.14383L13.9549 6.15103C13.9381 6.17303 13.9198 6.19388 13.9003 6.21343L13.8995 6.21401L8.85787 11.2348C8.61329 11.4784 8.21756 11.4776 7.97399 11.233C7.75256 11.0107 7.73311 10.6634 7.91516 10.4191L7.97582 10.3491L11.9433 6.39699L0.958344 6.39649C0.613166 6.39649 0.333344 6.11667 0.333344 5.77149Z" fill="#E5288E"/>
</svg>
